<?xml version="1.0" standalone="no"?>
<!DOCTYPE svg PUBLIC "-//W3C//DTD SVG 20010904//EN"
 "http://www.w3.org/TR/2001/REC-SVG-20010904/DTD/svg10.dtd">
<svg version="1.0" xmlns="http://www.w3.org/2000/svg"
 width="3926.000000pt" height="819.000000pt" viewBox="0 0 3926.000000 819.000000"
 preserveAspectRatio="xMidYMid meet">

<g transform="translate(0.000000,819.000000) scale(0.100000,-0.100000)"
fill="#000000" stroke="none">
<path d="M17455 8100 c-16 -5 -55 -9 -85 -8 -51 1 -177 -17 -310 -43 -48 -9
-251 -72 -365 -113 -64 -23 -305 -149 -362 -189 -29 -20 -77 -53 -105 -73
-188 -130 -468 -410 -602 -601 -80 -115 -206 -304 -206 -309 0 -3 -25 -48 -55
-100 -30 -53 -55 -97 -55 -99 0 -3 -33 -75 -110 -240 -16 -33 -42 -98 -58
-145 -17 -47 -40 -110 -52 -140 -12 -30 -28 -75 -35 -100 -7 -25 -29 -99 -49
-165 -20 -66 -43 -149 -52 -185 -8 -36 -21 -90 -29 -120 -55 -218 -106 -521
-132 -780 -20 -208 -23 -760 -4 -935 7 -60 14 -146 17 -190 3 -44 11 -109 19
-145 8 -36 19 -96 24 -135 17 -113 38 -227 50 -270 6 -22 24 -94 41 -160 32
-130 53 -203 69 -250 6 -16 22 -65 37 -109 14 -43 29 -86 34 -95 4 -9 23 -54
40 -101 47 -126 172 -389 246 -520 21 -36 42 -74 48 -85 29 -51 103 -164 181
-275 21 -30 48 -68 59 -85 12 -16 37 -48 56 -70 19 -22 57 -67 85 -100 94
-113 302 -309 387 -365 25 -17 52 -37 58 -45 7 -8 16 -15 21 -15 9 0 100 -61
130 -86 8 -8 22 -14 31 -14 8 0 23 -9 33 -20 10 -11 28 -20 41 -20 13 0 26 -5
30 -11 3 -6 21 -17 38 -25 17 -8 38 -18 46 -22 68 -37 102 -52 120 -52 11 0
38 -9 60 -20 22 -11 50 -20 63 -20 13 0 32 -7 43 -15 10 -8 33 -15 50 -15 17
0 51 -7 75 -15 24 -9 66 -18 94 -21 27 -2 72 -11 98 -20 70 -23 705 -24 757
-1 19 8 65 18 101 21 37 3 83 13 102 21 20 8 51 15 69 15 18 0 42 7 52 15 11
8 29 15 41 15 11 0 37 9 58 20 20 11 46 20 58 20 11 0 33 7 47 15 15 8 38 19
52 25 14 5 32 14 40 19 8 5 47 25 85 44 120 59 169 87 196 111 15 13 37 30 49
36 113 61 381 306 530 484 77 93 236 312 282 389 107 180 310 589 343 692 7
22 23 65 34 95 12 30 33 89 46 130 14 41 30 89 36 105 12 34 26 86 63 230 49
194 65 271 86 405 11 74 26 160 32 190 12 60 19 156 38 527 10 193 10 289 1
470 -17 317 -26 426 -40 513 -35 218 -45 271 -58 335 -9 39 -21 99 -29 135
-36 179 -117 453 -179 610 -18 47 -45 114 -59 150 -25 66 -99 224 -136 292
-11 20 -20 42 -20 49 0 7 -6 20 -14 28 -7 9 -24 36 -37 61 -71 136 -107 193
-231 366 -35 49 -75 106 -89 127 -29 44 -184 222 -244 282 -22 22 -71 67 -109
100 -37 33 -82 73 -100 88 -17 15 -49 40 -71 56 -22 15 -65 45 -95 66 -108 77
-127 87 -250 148 -110 53 -253 110 -345 137 -16 5 -48 15 -70 24 -22 8 -53 15
-69 16 -15 0 -54 6 -85 14 -60 15 -213 37 -296 42 -186 11 -304 12 -330 4z
m245 -2190 c81 -11 172 -33 228 -54 226 -85 438 -284 609 -571 81 -136 195
-429 209 -537 4 -29 11 -63 15 -76 18 -46 39 -298 39 -452 0 -145 -22 -430
-35 -451 -4 -5 -10 -35 -15 -66 -37 -223 -206 -580 -379 -796 -66 -83 -246
-247 -272 -247 -5 0 -26 -11 -47 -24 -47 -29 -144 -67 -237 -92 -109 -29 -351
-27 -465 4 -197 55 -390 183 -520 347 -51 65 -160 222 -160 232 0 3 -13 27
-29 54 -63 101 -157 348 -201 524 -18 71 -38 219 -50 370 -11 138 -3 299 25
495 18 129 25 159 80 330 105 326 207 503 410 706 102 101 138 130 225 180
120 67 208 99 330 119 103 16 155 17 240 5z"/>
<path d="M23155 8030 c-22 -4 -85 -15 -139 -24 -55 -10 -103 -19 -107 -22 -4
-2 -54 -18 -111 -34 -112 -32 -106 -30 -288 -119 -209 -103 -364 -203 -485
-312 -22 -20 -67 -61 -101 -90 -53 -48 -113 -109 -223 -229 -18 -19 -63 -73
-99 -120 -37 -47 -88 -112 -114 -144 -26 -32 -67 -90 -90 -128 -24 -38 -67
-106 -96 -151 -56 -88 -213 -399 -255 -507 -14 -36 -44 -112 -67 -170 -23 -58
-48 -129 -56 -157 -8 -29 -20 -77 -28 -105 -8 -29 -26 -91 -39 -138 -14 -47
-37 -148 -51 -225 -14 -77 -30 -159 -36 -183 -6 -24 -15 -87 -20 -140 -6 -53
-17 -146 -25 -207 -18 -138 -38 -605 -31 -705 3 -41 8 -147 11 -235 7 -192 41
-495 78 -695 41 -218 49 -256 92 -405 8 -27 23 -84 35 -125 12 -41 35 -111 51
-155 17 -44 44 -118 62 -165 33 -90 210 -454 255 -524 200 -315 342 -501 519
-681 123 -125 234 -227 293 -270 37 -27 73 -54 93 -70 23 -19 125 -85 143 -92
10 -3 40 -21 68 -40 28 -18 56 -33 62 -33 6 0 17 -7 24 -15 7 -8 21 -15 32
-15 11 0 31 -9 45 -20 14 -11 35 -20 46 -20 11 0 28 -6 36 -13 20 -17 101 -46
158 -56 23 -4 48 -12 55 -18 38 -30 355 -75 538 -76 105 0 310 23 385 44 39
10 84 19 100 19 17 1 41 7 55 15 14 8 39 14 55 15 17 0 44 9 60 20 17 11 42
20 56 20 15 0 32 7 39 15 7 8 22 15 33 15 23 0 42 9 257 114 85 42 167 87 182
99 26 21 50 73 69 149 5 22 8 493 6 1145 l-2 1108 -22 45 c-36 75 -65 95 -133
95 -70 0 -93 -17 -146 -110 -19 -33 -40 -69 -47 -80 -19 -31 -113 -155 -154
-204 -59 -68 -257 -221 -287 -221 -8 0 -18 -4 -21 -10 -9 -14 -97 -53 -175
-78 -145 -45 -398 -32 -565 28 -49 18 -101 41 -115 51 -14 9 -56 37 -95 62
-65 42 -190 155 -243 220 -161 197 -279 470 -337 775 -14 74 -36 357 -36 457
1 144 24 409 45 510 34 162 50 228 58 240 3 6 11 30 18 53 22 83 178 382 200
382 4 0 12 11 18 24 21 47 193 215 275 269 127 83 139 89 171 98 17 4 63 20
101 34 62 24 89 27 235 32 153 5 171 4 235 -17 179 -58 253 -96 378 -193 132
-103 225 -211 328 -381 29 -48 69 -101 88 -117 68 -56 154 -29 204 64 l22 42
3 1143 c2 1127 2 1143 -18 1187 -11 24 -20 48 -20 52 0 10 -23 30 -65 58 -28
18 -67 37 -260 130 -72 35 -233 98 -295 117 -19 5 -39 14 -45 18 -5 5 -35 13
-65 19 -30 6 -120 24 -200 41 -134 28 -159 30 -335 29 -104 -1 -208 -5 -230
-9z"/>
<path d="M528 7898 c-55 -9 -109 -68 -133 -144 -15 -49 -16 -310 -12 -3531 4
-2798 7 -3485 17 -3515 20 -56 65 -106 108 -118 52 -14 1249 -14 1305 1 56 14
80 35 107 95 l22 49 3 934 c2 605 7 937 13 943 7 7 19 -3 36 -31 14 -22 26
-44 26 -49 0 -8 114 -268 170 -387 18 -38 47 -104 65 -145 30 -71 96 -207 115
-240 5 -8 17 -35 28 -60 11 -25 36 -80 56 -123 20 -43 36 -84 36 -91 0 -8 7
-19 15 -26 8 -6 17 -22 21 -33 3 -12 28 -69 56 -127 83 -175 88 -187 88 -201
0 -8 9 -27 20 -44 11 -16 20 -36 20 -42 0 -7 13 -41 29 -75 16 -35 48 -103 70
-151 23 -49 41 -91 41 -93 0 -12 72 -93 88 -99 9 -4 373 -9 808 -12 842 -6
845 -6 889 42 39 42 55 92 55 175 0 44 -4 88 -9 98 -5 9 -19 40 -31 67 -12 28
-26 57 -31 65 -5 8 -25 47 -44 85 -20 39 -44 84 -54 100 -20 31 -40 67 -117
215 -25 47 -61 117 -82 155 -65 122 -79 148 -115 220 -45 92 -85 165 -96 179
-5 6 -33 58 -63 116 -93 178 -159 303 -188 355 -15 28 -51 95 -81 150 -29 55
-63 118 -75 140 -13 22 -37 67 -54 100 -18 33 -43 78 -56 100 -21 36 -33 60
-45 90 -2 6 -24 46 -49 90 -56 101 -101 185 -135 255 -15 30 -34 63 -42 72
-20 22 -8 56 25 71 104 46 292 204 391 327 131 163 229 331 296 505 14 39 32
86 40 105 54 141 104 357 136 590 26 184 37 647 20 825 -59 602 -241 1108
-525 1460 -108 133 -290 305 -323 305 -5 0 -25 12 -44 26 -19 14 -81 48 -139
76 -58 28 -117 57 -132 64 -14 8 -32 14 -40 14 -7 0 -42 9 -78 19 -102 31
-227 50 -366 57 -187 8 -2004 10 -2056 2z m3098 -871 c-13 -17 -29 -44 -35
-59 -9 -23 -51 -59 -51 -43 0 28 77 135 97 135 10 0 7 -9 -11 -33z m-86 -132
c13 -16 6 -35 -15 -35 -18 0 -28 17 -21 35 7 19 20 19 36 0z m-1429 -815 c95
-9 209 -40 239 -65 8 -7 25 -16 37 -19 24 -8 114 -102 137 -144 70 -127 98
-240 98 -395 0 -81 -6 -133 -21 -187 -62 -231 -143 -334 -313 -398 -72 -27
-298 -43 -323 -22 -13 11 -15 87 -15 614 0 455 3 605 12 614 14 14 24 14 149
2z"/>
<path d="M5069 7898 c-51 -9 -77 -32 -115 -101 l-29 -52 0 -3065 c-1 -1686 2
-3265 5 -3510 5 -436 5 -446 27 -485 33 -59 54 -81 88 -91 17 -5 634 -7 1434
-4 l1403 5 38 44 c29 33 40 57 44 90 7 54 19 1037 16 1361 -1 123 -5 246 -10
272 -11 57 -43 108 -85 137 -31 21 -34 21 -701 21 -508 0 -673 3 -682 12 -18
18 -17 727 1 751 11 15 67 17 653 19 726 3 656 -5 711 87 l28 46 0 826 0 826
-24 51 c-18 38 -36 59 -67 77 l-43 25 -623 0 c-472 0 -627 3 -636 12 -9 9 -12
99 -12 344 0 289 2 335 16 348 14 14 90 16 689 16 l673 0 40 39 c77 75 80 111
82 931 2 615 0 715 -14 783 -25 121 -68 175 -145 183 -73 8 -2715 10 -2762 2z"/>
<path d="M8708 7900 c-154 -6 -161 -9 -216 -99 l-27 -46 0 -3510 0 -3510 26
-50 c33 -61 53 -80 99 -92 21 -6 379 -8 880 -7 1051 4 1286 9 1333 29 20 8 56
16 82 19 25 2 54 11 64 20 9 9 33 16 53 16 20 0 46 9 61 20 14 11 39 20 55 20
17 0 32 6 36 15 3 8 18 15 34 15 15 0 33 5 38 10 6 6 55 34 110 62 54 28 115
59 134 69 48 26 155 103 226 164 65 54 297 285 328 325 11 14 41 50 67 80 59
68 159 210 285 405 39 60 126 231 194 380 65 142 78 171 88 200 6 17 20 55 32
85 86 225 163 501 205 733 8 49 22 101 30 117 8 16 15 42 15 57 0 15 6 82 15
148 27 221 44 523 39 700 -8 300 -24 529 -39 578 -8 26 -15 80 -16 120 -1 68
-10 127 -44 277 -9 36 -20 90 -25 120 -5 30 -18 84 -28 120 -11 36 -34 117
-52 180 -32 114 -45 153 -80 240 -10 25 -28 70 -40 100 -12 30 -27 69 -35 85
-8 17 -31 73 -51 125 -21 52 -52 120 -69 150 -18 30 -56 100 -85 155 -98 187
-302 472 -436 611 -33 33 -90 93 -129 133 -38 41 -95 94 -125 120 -30 25 -75
63 -100 84 -25 21 -49 41 -55 45 -45 31 -154 101 -200 129 -85 50 -363 173
-392 173 -7 0 -34 7 -60 16 -77 26 -250 54 -378 60 -152 7 -1664 11 -1847 4z
m1582 -1951 c36 -6 91 -12 122 -13 36 -1 63 -8 75 -18 10 -9 32 -19 49 -22 37
-8 168 -74 239 -122 94 -62 221 -198 300 -321 46 -72 65 -111 159 -323 27 -62
87 -273 97 -340 5 -36 16 -98 24 -139 35 -170 29 -728 -10 -871 -8 -30 -15
-74 -15 -98 0 -24 -5 -53 -11 -64 -7 -12 -17 -44 -25 -72 -29 -116 -46 -169
-75 -233 -16 -38 -40 -90 -52 -118 -139 -320 -435 -582 -717 -635 -25 -4 -57
-13 -71 -18 -38 -15 -335 -27 -343 -14 -3 6 -6 774 -6 1708 0 1246 3 1700 11
1710 14 17 155 19 249 3z"/>
<path d="M25331 7898 c-53 -9 -75 -22 -104 -61 -55 -73 -52 167 -52 -3587 0
-2837 2 -3484 13 -3526 18 -68 62 -121 114 -135 29 -7 419 -9 1387 -4 740 3
1369 8 1398 11 47 5 55 9 83 47 16 22 30 51 30 62 0 12 7 35 15 52 13 26 15
135 12 819 l-2 789 -28 57 c-52 106 7 98 -763 98 -377 0 -675 4 -683 9 -12 8
-15 74 -19 373 l-4 363 22 20 c22 20 36 20 656 20 l633 0 41 40 c22 21 46 55
52 75 18 51 24 1537 7 1635 -14 82 -43 134 -93 165 l-36 22 -612 -3 c-480 -3
-618 -1 -635 9 l-23 13 0 339 c0 328 1 340 20 350 13 7 235 10 686 10 l666 -1
33 25 c18 14 44 47 56 73 l24 48 0 825 0 825 -22 40 c-11 22 -35 54 -53 70
l-31 30 -1374 5 c-755 3 -1391 2 -1414 -2z"/>
<path d="M30261 7898 c-105 -23 -127 -65 -212 -403 -16 -66 -34 -131 -40 -144
-6 -14 -14 -43 -18 -65 -8 -38 -40 -158 -92 -346 -63 -228 -69 -252 -115 -420
-20 -74 -40 -151 -44 -170 -4 -19 -18 -71 -30 -115 -35 -126 -111 -407 -149
-550 -10 -38 -29 -106 -41 -150 -12 -44 -26 -99 -31 -123 -5 -23 -13 -50 -18
-60 -5 -9 -12 -37 -16 -62 -4 -25 -11 -53 -16 -62 -5 -10 -14 -37 -19 -60 -5
-24 -18 -74 -29 -113 -37 -135 -63 -231 -83 -305 -24 -93 -41 -158 -63 -235
-9 -33 -25 -94 -36 -135 -11 -41 -23 -88 -28 -105 -9 -29 -22 -76 -56 -200 -9
-33 -22 -85 -30 -115 -29 -116 -43 -167 -58 -220 -9 -30 -21 -73 -27 -95 -6
-22 -25 -92 -42 -155 -17 -63 -39 -146 -50 -185 -10 -38 -27 -101 -37 -140
-11 -38 -29 -106 -41 -150 -12 -44 -28 -105 -36 -135 -34 -127 -43 -158 -59
-215 -9 -33 -25 -93 -36 -133 -10 -39 -28 -107 -40 -150 -12 -42 -29 -108 -40
-147 -10 -38 -27 -104 -39 -145 -11 -41 -25 -91 -29 -110 -9 -37 -42 -159
-112 -415 -11 -38 -24 -90 -29 -115 -6 -25 -14 -56 -19 -70 -5 -14 -21 -70
-36 -125 -14 -55 -32 -122 -40 -150 -51 -188 -57 -219 -58 -305 0 -75 3 -95
20 -118 10 -15 22 -34 25 -43 4 -9 22 -23 41 -32 31 -15 105 -17 726 -17 545
0 698 2 719 12 29 14 81 100 82 134 0 11 5 25 10 30 6 6 15 33 20 60 15 88 42
188 56 216 8 14 14 38 14 52 0 15 7 43 16 64 15 37 54 166 101 337 13 50 31
113 39 140 8 28 19 65 24 84 4 18 14 39 20 45 8 8 216 11 747 12 l736 2 24
-24 c12 -13 23 -33 23 -45 0 -20 23 -118 55 -234 8 -27 26 -95 40 -150 15 -55
30 -110 35 -121 5 -12 12 -43 15 -70 4 -27 11 -54 16 -60 5 -6 15 -42 24 -80
28 -133 42 -191 54 -212 6 -11 11 -32 11 -47 0 -27 32 -84 70 -123 l21 -23
730 3 729 3 25 30 c13 17 27 44 31 60 3 17 12 38 19 48 14 20 9 155 -6 171 -5
6 -9 21 -9 35 0 15 -7 46 -15 71 -41 128 -65 214 -65 238 -1 15 -7 38 -15 52
-8 14 -14 36 -15 50 0 41 -83 370 -122 485 -6 17 -16 57 -23 90 -17 78 -37
160 -65 260 -12 44 -28 105 -35 135 -6 30 -20 82 -29 115 -26 88 -44 155 -54
200 -6 22 -20 76 -32 120 -12 44 -37 139 -55 210 -19 72 -44 166 -55 210 -12
44 -26 99 -31 123 -5 24 -11 48 -14 53 -4 5 -22 71 -41 146 -20 76 -45 172
-56 213 -11 41 -26 100 -33 130 -8 30 -26 98 -40 150 -26 96 -66 246 -111 418
-13 50 -36 136 -50 190 -15 53 -33 122 -40 152 -33 129 -46 178 -60 225 -8 28
-28 104 -45 170 -17 66 -36 143 -44 170 -7 28 -27 104 -44 170 -17 66 -36 134
-42 150 -6 17 -17 57 -24 90 -7 33 -22 94 -34 135 -11 41 -29 110 -40 153 -12
42 -30 110 -40 150 -11 39 -29 108 -41 152 -27 105 -58 218 -75 280 -8 28 -26
97 -40 155 -30 119 -67 259 -126 478 -12 42 -27 102 -34 132 -15 63 -89 337
-104 390 -18 61 -43 97 -85 124 l-40 26 -662 0 c-364 0 -668 2 -676 4 -7 2
-33 -1 -57 -6z m698 -3140 c6 -18 20 -71 30 -118 11 -47 31 -134 46 -195 14
-60 30 -132 35 -158 6 -27 12 -52 15 -57 3 -5 10 -30 15 -57 6 -26 22 -95 35
-153 14 -58 32 -132 40 -165 7 -33 21 -91 31 -130 9 -38 17 -81 18 -95 l1 -25
-290 0 c-284 0 -290 0 -289 20 1 11 13 67 28 125 15 58 36 143 47 190 11 47
26 108 34 135 8 28 25 102 40 165 14 63 32 138 39 165 8 28 24 95 36 150 25
115 50 217 57 228 9 15 22 6 32 -25z"/>
<path d="M34561 7900 l-623 -5 -37 -42 c-21 -23 -45 -65 -54 -93 -16 -49 -17
-305 -17 -3526 l0 -3473 21 -53 c25 -66 62 -106 109 -117 51 -14 1259 -15
1308 -2 43 12 73 40 103 97 20 39 20 54 25 1814 3 976 7 1781 10 1789 3 11 10
9 29 -9 14 -13 27 -32 31 -42 3 -11 23 -49 43 -86 39 -68 74 -133 163 -297 27
-49 53 -97 58 -105 5 -8 20 -35 33 -60 13 -25 50 -92 82 -150 32 -58 76 -139
98 -180 22 -41 43 -79 47 -85 4 -5 29 -50 56 -100 26 -49 58 -108 70 -130 13
-22 34 -60 47 -85 14 -25 51 -92 82 -150 32 -58 72 -130 88 -160 16 -30 47
-85 68 -122 22 -36 39 -69 39 -72 0 -3 15 -31 34 -63 37 -65 96 -172 211 -388
27 -49 62 -112 78 -140 16 -27 33 -59 38 -70 5 -11 19 -36 31 -55 21 -34 60
-107 123 -225 17 -33 43 -78 56 -100 14 -22 36 -62 49 -90 13 -27 29 -57 36
-65 6 -8 29 -49 51 -90 22 -41 54 -100 70 -130 17 -30 49 -91 73 -135 93 -175
162 -282 193 -301 31 -18 61 -19 647 -22 338 -2 639 0 668 3 63 8 101 37 132
101 l22 45 0 3503 0 3503 -22 51 c-12 27 -35 63 -51 78 l-30 29 -673 0 -672 0
-31 -25 c-17 -14 -41 -45 -54 -70 l-24 -45 -3 -1783 -2 -1783 -22 3 c-16 2
-31 21 -53 63 -17 33 -47 89 -67 125 -39 71 -82 149 -136 250 -20 36 -47 86
-61 111 -14 26 -49 89 -77 140 -28 52 -63 114 -76 139 -14 25 -44 81 -68 125
-24 44 -46 85 -50 90 -4 6 -29 51 -55 100 -27 50 -59 108 -72 130 -12 22 -28
51 -35 65 -7 14 -34 62 -60 108 -27 46 -48 86 -48 89 0 2 -17 35 -39 71 -21
37 -54 96 -73 132 -19 36 -54 101 -78 145 -23 44 -46 85 -50 90 -5 6 -24 39
-43 75 -89 169 -120 226 -127 235 -4 6 -29 51 -56 100 -26 50 -60 110 -75 135
-15 25 -55 99 -89 165 -34 66 -65 125 -70 130 -6 9 -60 107 -122 225 -10 19
-28 51 -40 70 -11 19 -36 64 -55 100 -47 87 -95 176 -123 225 -12 22 -39 71
-60 109 -67 124 -105 158 -190 167 -19 3 -316 2 -659 -1z m1057 -888 c36 -56
48 -82 36 -82 -14 0 -44 33 -44 50 0 9 -11 27 -25 40 -28 26 -32 40 -12 40 8
0 28 -22 45 -48z m80 -130 c2 -14 -2 -22 -12 -22 -19 0 -28 14 -20 35 9 21 28
14 32 -13z"/>
</g>
</svg>
